<?xml version="1.0" encoding="utf-8"?>
<!-- Generator: Adobe Illustrator 22.0.1, SVG Export Plug-In . SVG Version: 6.00 Build 0)  -->
<svg version="1.1" id="Layer_1" xmlns="http://www.w3.org/2000/svg" xmlns:xlink="http://www.w3.org/1999/xlink" x="0px" y="0px"
	 viewBox="0 0 377.1 200" style="enable-background:new 0 0 377.1 200;" xml:space="preserve">
<style type="text/css">
	.st0{fill:#C3C3E1;}
	.st1{fill:#8B8CC4;}
	.st2{fill:#6E6FAC;}
	.st3{fill:#E1DFDD;}
	.st4{fill:url(#SVGID_1_);}
	.st5{fill:#605D5A;}
	.st6{fill:#BF8F68;}
	.st7{fill:#DCB38B;}
	.st8{fill:url(#SVGID_2_);}
	.st9{fill:#FFFFFF;}
	.st10{fill:#F7B548;}
	.st11{fill:none;stroke:#EAEAF3;stroke-width:1.0652;stroke-miterlimit:10;}
	.st12{fill:#C8C6C4;}
	.st13{fill:#9B643D;}
	.st14{fill:url(#SVGID_3_);}
	.st15{fill:url(#SVGID_4_);}
	.st16{fill:#33312D;}
	.st17{opacity:0.6;fill:#231F20;enable-background:new    ;}
	.st18{fill:#F8F8F8;}
	.st19{fill:#594539;}
	.st20{fill:url(#SVGID_5_);}
	.st21{fill:#E0BB95;}
	.st22{fill:url(#SVGID_6_);}
	.st23{fill:url(#SVGID_7_);}
	.st24{fill:none;stroke:#8B8CC4;stroke-width:1.3393;stroke-miterlimit:10;}
	.st25{fill:#FFD590;}
	.st26{fill:none;stroke:#8B8CC4;stroke-width:2.1806;stroke-linecap:round;stroke-linejoin:round;stroke-miterlimit:10;}
	.st27{fill:url(#SVGID_8_);}
	.st28{fill:#797673;}
	.st29{fill:#FADCBD;}
	.st30{fill:url(#SVGID_9_);}
	.st31{fill:url(#SVGID_10_);}
	.st32{fill:url(#SVGID_11_);}
	.st33{fill:#BE906B;}
	.st34{fill:url(#SVGID_12_);}
	.st35{fill:#9A6541;}
	.st36{fill:#F3F2F1;}
	.st37{fill:url(#SVGID_13_);}
	.st38{fill:url(#SVGID_14_);}
	.st39{fill:url(#SVGID_15_);}
	.st40{fill:url(#SVGID_16_);}
	.st41{fill:#FDFDFD;}
	.st42{fill:#95C023;}
	.st43{fill:#717171;}
	.st44{fill:#90BD0D;}
</style>
<g>
	<path class="st0" d="M43.1,3.4l0.1,96.6h146.3l-0.1-99.8h-143C44.6,0.1,43.1,1.6,43.1,3.4L43.1,3.4z"/>
	<path class="st1" d="M38.5,72.5c0.1,15.1,7.4,10.7,6.2,38.5c8-9.1,11.6-22.2,6.2-37.7C48.6,66.8,42,71.4,38.5,72.5z"/>
	<path class="st2" d="M50.9,73.2c-0.1-0.9-2.2-2.8-4-2.7c-2.8,0.2-4.6,3.2-6.1,5.4c-4.5,6.7-11.1,4-11.1,4s1.1-0.9,2.2-3.5
		c1.5-3.8,0.8-5.5,3.5-6.5c1.1-0.4,3.1,0.1,5.2-0.2c2.5-0.4,4.6-2.4,7.6-0.5C50,70.3,50.9,73.2,50.9,73.2z"/>
	<path class="st1" d="M49,112.7c0,0,11.6-18,14.1-24.9c3.2-8.9,5.8-13,5.8-13s-13,3.2-18,11.2S49,112.7,49,112.7z"/>
	<path class="st2" d="M50.9,86c-3.1,4.9-3.1,13.9-2.6,20.1c4-6.4,6-14.2,4.9-22.9C52.3,84.1,51.5,85,50.9,86z"/>
	<path class="st1" d="M54.5,109.7c3.3-3.4,5-6.8,9.8-8.3c6-1.9,6.6-4.5,11.1-9.3c-5.7,0.7-10.1-0.3-13.4,1.4
		C55.6,96.9,55.8,103.9,54.5,109.7z"/>
	<path class="st2" d="M188.9,84.5c-4.7-8.2-15.5-9.7-15.5-9.7s2.5,4.1,5.7,13c2.4,6.8,14.1,24.9,14.1,24.9S193.8,93.1,188.9,84.5
		L188.9,84.5z"/>
	<path class="st2" d="M182.1,94.6c-4.1-2.1-8.7-0.9-13.4-1.4c4.5,4.8,5.1,7.5,11.1,9.3c4.8,1.5,6.5,4.9,9.8,8.3
		C188.4,105,188.6,98,182.1,94.6L182.1,94.6z"/>
	<path class="st3" d="M189.5,0.1l0.1,99.8h146.3l-0.1-96.6c0-1.8-1.4-3.2-3.3-3.2C332.4,0.1,189.5,0.1,189.5,0.1z"/>
	
		<linearGradient id="SVGID_1_" gradientUnits="userSpaceOnUse" x1="260.0494" y1="-119.3132" x2="260.0494" y2="-91.6732" gradientTransform="matrix(1 0 0 -1 0 -4.846)">
		<stop  offset="0" style="stop-color:#C3C3E1"/>
		<stop  offset="1" style="stop-color:#FFFFFF"/>
	</linearGradient>
	<path class="st4" d="M305,88.4c-3.6-8.1-8.2-14.4-13.8-18.9c-5.2-4.1-12.7-6.1-17-7.1c-1.7-0.2-3.5-0.2-5.2-0.1
		c-2.8-0.4-6.1-0.7-9.5-0.7s-6.6,0.2-9.3,0.6c-1.4,0-2.8,0-4.3,0.2c-4.3,1-11.8,3-17,7.1c-5.7,4.5-10.3,10.8-13.8,18.9
		c-2,4.6-3.3,9.9-3.8,15.7c-0.8,10.2,98.2,10.7,97.5,0.6C308.4,98.6,307.1,93.2,305,88.4L305,88.4z"/>
	<path class="st5" d="M242.8,63.1V123h-6V65C238.9,64.2,241,63.6,242.8,63.1z M281.2,64.3V123h-6V62.6C277,63,279,63.6,281.2,64.3
		L281.2,64.3z"/>
	<path class="st6" d="M243.3,39l31.2,0.2l0.1-12.7c0-3.1-2.5-5.7-5.6-5.7l0,0l-19.9-0.1c-3.1,0-5.7,2.5-5.7,5.6l0,0L243.3,39z"/>
	<path class="st7" d="M269.9,36h-21l0.1,22.4c0,1.5-1,2.5-1.7,2.8c7.2,5.7,18.7,4,24.5,0c-0.9-0.1-1.7-1.9-1.7-3.8L269.9,36z"/>
	<circle class="st7" cx="245.6" cy="39.6" r="4.6"/>
	
		<ellipse transform="matrix(0.1602 -0.9871 0.9871 0.1602 189.8732 302.1988)" class="st7" cx="272.5" cy="39.5" rx="4.6" ry="4.6"/>
	<path class="st6" d="M256.2,57.3h5.2c6.2,0,11.2-5,11.3-11.2l0.1-15.4c0-3.3-2.6-6-5.9-6l-15.4-0.1c-3.4,0-6.1,2.7-6.2,6.1
		l-0.1,15.4C245.2,52.2,250.1,57.2,256.2,57.3z"/>
	<path class="st6" d="M244,25.2c0,0,3.3-1.7,3.5,3.9c0.1,3.3-1,5-1.9,5.4s-1.5,0.4-1.5,0.4L244,25.2L244,25.2z"/>
	<path class="st7" d="M255,47.2h7.7c4.9,0,8.9-3.9,8.9-8.8v-8.6c0-2.6-2.1-4.7-4.7-4.8l0,0h-15.7c-2.7,0-4.9,2.1-4.9,4.8v8.6
		C246.3,43.2,250.2,47.2,255,47.2z"/>
	<ellipse transform="matrix(5.497719e-03 -1 1 5.497719e-03 225.0072 301.3112)" class="st5" cx="264" cy="37.5" rx="2" ry="1.1"/>
	<path class="st6" d="M253.3,29c4-0.8,5.7-2.4,9.7-3.1c6.7-1,7.7,0.9,7.7,0.9l1.2-1.9c-0.2-4.6-2.8-8.9-8-8.1c-8,1.2-5.3-1-8.8-1.2
		c-3.2-0.2-4,3-5.3,3.3c-3.1,0.7-3.2-5.3-7.6-3.3C238.3,17.4,235.7,32.5,253.3,29z"/>
	
		<radialGradient id="SVGID_2_" cx="453.5882" cy="-342.3239" r="7.4499" gradientTransform="matrix(0.9701 1.230000e-02 1.110000e-02 -0.8744 -176.8331 -263.2336)" gradientUnits="userSpaceOnUse">
		<stop  offset="0" style="stop-color:#9B643D"/>
		<stop  offset="1" style="stop-color:#BF8F68;stop-opacity:0"/>
	</radialGradient>
	<path class="st8" d="M247.6,51.8h11.1v-6.1c0-0.5-0.3-1-0.7-1.3l-2.2-1.4c-0.5-0.3-0.6-1-0.3-1.4l1.9-3c0.5-0.7,0.7-1.5,0.7-2.4
		v-7.8H247C247,28.3,247.6,51.8,247.6,51.8z"/>
	<path class="st6" d="M273.9,25.5c0,0-4.7-2.9-4.9,2.6c-0.1,3.3,1.6,5.2,2.7,6.2c0.7,0.7,2.2,0.7,2.2,0.7L273.9,25.5L273.9,25.5z"/>
	
		<ellipse transform="matrix(5.497719e-03 -1 1 5.497719e-03 214.2639 290.5838)" class="st5" cx="253.2" cy="37.6" rx="2" ry="1.1"/>
	<path class="st7" d="M263.3,47.5c-0.1,0.7-0.5,1.4-1.1,1.9s-1.3,0.8-2.1,1c-0.8,0.1-1.6,0-2.3-0.3c-0.7-0.3-1.3-0.9-1.5-1.7
		c-0.1-0.2,0.1-0.5,0.3-0.5c0.1,0,0.2,0,0.3,0h0.1c0.6,0.2,1,0.3,1.5,0.4c0.5,0,0.9,0,1.4,0c0.5-0.1,0.9-0.2,1.4-0.4
		s0.9-0.4,1.5-0.7l0,0C263,47.1,263.3,47.2,263.3,47.5C263.3,47.3,263.3,47.4,263.3,47.5L263.3,47.5z"/>
	<path class="st7" d="M259.5,51.5c-0.7,0-1.5-0.2-2.1-0.5c-1.1-0.5-1.8-1.3-2.1-2.3c-0.1-0.4-0.1-0.8,0.1-1.1
		c0.3-0.5,0.8-0.8,1.3-0.8c0.2,0,0.4,0,0.5,0.1c0.5,0.2,0.9,0.3,1.3,0.3c0.1,0,0.3,0,0.5,0s0.5,0,0.7,0c0.8-0.1,1.5-0.4,2.5-1
		c0.3-0.2,0.5-0.2,0.8-0.2c0.5,0,1,0.3,1.3,0.7c0.2,0.3,0.2,0.7,0.2,1c-0.2,0.9-0.7,1.8-1.5,2.5c-0.7,0.6-1.6,1-2.6,1.2
		C260,51.5,259.8,51.5,259.5,51.5L259.5,51.5z"/>
	<path class="st6" d="M262.9,47.1c0.2,0,0.4,0.2,0.4,0.4c0,0,0,0,0,0.1c-0.1,0.7-0.5,1.4-1.1,1.9s-1.3,0.8-2.1,1c-0.2,0-0.4,0-0.6,0
		c-0.6,0-1.2-0.1-1.7-0.4c-0.7-0.3-1.3-0.9-1.5-1.7c-0.1-0.2,0.1-0.5,0.3-0.5c0.1,0,0.2,0,0.3,0h0.1c0.7,0.3,1.4,0.4,2.1,0.4
		c0.3,0,0.6,0,0.8-0.1c0.9-0.1,1.8-0.4,2.8-1.1l0,0C262.7,47.1,262.8,47.1,262.9,47.1 M262.9,44.9c-0.5,0-0.9,0.1-1.3,0.4
		c-1,0.6-1.5,0.8-2.1,0.8l0,0l0,0c-0.2,0-0.3,0-0.5,0c-0.4,0-0.9-0.1-1.3-0.2h-0.1c-0.5-0.2-1.1-0.2-1.6-0.1
		c-0.7,0.2-1.2,0.6-1.5,1.2c-0.3,0.6-0.4,1.3-0.2,1.9c0.4,1.3,1.4,2.4,2.7,3c0.8,0.4,1.7,0.6,2.6,0.6c0.3,0,0.6,0,0.9-0.1l0,0l0,0
		c1.2-0.2,2.3-0.7,3.2-1.5c0.9-0.8,1.6-1.9,1.8-3.1c0.1-0.6,0-1.2-0.3-1.7C264.6,45.4,263.8,44.9,262.9,44.9z"/>
	<path class="st9" d="M271.3,71.1h-23.6c-0.8,0-1.4-0.6-1.4-1.4l0,0v-11c0-0.8,0.6-1.4,1.4-1.4l0,0h23.6c0.8,0,1.4,0.6,1.4,1.4v11
		C272.7,70.5,272.1,71.1,271.3,71.1z"/>
	<path class="st10" d="M266.4,68.5l-7.5-3.7l-7.5,3.7c-0.7,0.4-1.5-0.3-1.5-1.2V60c0-0.9,0.8-1.6,1.6-1.2l7.5,3.7l7.5-3.7
		c0.7-0.4,1.6,0.3,1.6,1.2v7.2C268,68.2,267.2,68.8,266.4,68.5L266.4,68.5z"/>
	<path class="st7" d="M276.5,66.7c-0.3-0.5-0.8-0.9-1.4-1l-6.1-1.4c-0.5-0.1-1,0.1-1.2,0.6l-2,3.4c-0.2,0.3-0.1,0.8,0.3,1
		c0.3,0.2,0.7,0.1,0.9-0.2l1.7-2.5l3.7,0.8l-4.7,0.6l-0.3,1c-0.4,1.6-0.4,3.3,0,4.9l0.3,1c0.1,0.3,0.4,0.5,0.7,0.4
		c0.2,0,0.3-0.2,0.4-0.3l1.1-1.6l2.2,0.3c0,0,0.3,2.8,2.4,4.9s5.6,4,5.6,4l3.6-3.3L276.5,66.7L276.5,66.7z"/>
	<path class="st9" d="M283.6,79.1l-7,5.7l16,40.1l19.2-12.7L283.6,79.1z"/>
	<path class="st11" d="M287.2,83.3l-8.4,6.8"/>
	<path class="st7" d="M241.4,67.2c0.3-0.5,0.8-0.9,1.3-1.1l6-1.6c0.5-0.1,1,0.1,1.2,0.5l2.1,3.3c0.2,0.3,0.1,0.8-0.2,1
		s-0.7,0.1-1-0.2l-1.8-2.4l-3.7,0.9L250,68l0.3,1c0.5,1.6,0.5,3.3,0.2,4.9l-0.2,1c-0.1,0.3-0.4,0.5-0.7,0.5c-0.2,0-0.3-0.2-0.4-0.3
		l-1.2-1.6l-2.2,0.4c0,0-0.2,2.8-2.2,5s-5.4,4.2-5.4,4.2l-3.8-3.2L241.4,67.2L241.4,67.2z"/>
	<path class="st9" d="M234.7,79.8l7,5.7l-16,40.1l-19.2-12.7L234.7,79.8z"/>
	<path class="st11" d="M231.2,83.9l8.4,6.8"/>
	<path class="st12" d="M284.9,39.3h23.4v-0.6c0-5.7-4.6-10.3-10.3-10.4h-0.1h-2.7c-5.7,0-10.3,4.6-10.4,10.3v0.1L284.9,39.3
		L284.9,39.3z"/>
	<path class="st12" d="M323.4,101h-2.2V27.4c0-5.6-4.5-10.1-10.1-10.1l0,0h-3.6c-5.6,0-10.1,4.5-10.1,10.1l0,0v4h-2.2v-4
		c0-6.8,5.5-12.3,12.3-12.3h3.6c6.8,0,12.3,5.5,12.3,12.3L323.4,101L323.4,101z"/>
	<circle class="st12" cx="296.6" cy="38.7" r="4.4"/>
	<path class="st3" d="M301,38.7v0.6h-8.7c0-0.1-0.1-0.4-0.1-0.6c0-2.4,1.9-4.4,4.3-4.4c0,0,0,0,0.1,0C299.1,34.3,301,36.3,301,38.7
		L301,38.7L301,38.7z"/>
	<path class="st12" d="M285.3,39.3h23.4v-0.6c0-5.7-4.6-10.4-10.4-10.4h-2.7c-5.7,0-10.4,4.6-10.4,10.4L285.3,39.3L285.3,39.3z"/>
	<path class="st12" d="M323.7,101h-2.2V27.4c0-5.6-4.5-10.1-10.1-10.1h-3.6c-5.6,0-10.1,4.5-10.1,10.1v4h-2.2v-4
		c0-6.8,5.5-12.3,12.3-12.3h3.6c6.8,0,12.3,5.5,12.3,12.3L323.7,101L323.7,101z"/>
	<circle class="st12" cx="297" cy="38.8" r="4.4"/>
	<path class="st3" d="M301.4,38.8c0-2.4-2-4.4-4.4-4.4s-4.4,2-4.4,4.4c0,0.2,0,0.4,0.1,0.6h8.7C301.3,39.2,301.4,39,301.4,38.8
		L301.4,38.8z"/>
	<path class="st1" d="M189.5,100l0.1,99.8h143c1.8,0,3.3-1.5,3.3-3.3l0,0l-0.1-96.6L189.5,100L189.5,100z"/>
	<path class="st12" d="M43.1,100l0.1,96.6c0,1.8,1.4,3.2,3.3,3.2h143l-0.1-99.8H43.1L43.1,100z"/>
	<path class="st13" d="M78.8,146.6c0,0-28.4,6.4-43.3-5C16.7,127.3,19.7,106,19.7,106l-7,1.4c0,0-8.1,37.9,4,57.1
		c15,23.8,49.1,22.2,49.1,22.2L78.8,146.6z"/>
	<path class="st1" d="M169.1,189.4c2.1-22.9-13.7-42.8-35.3-42.8H98.5c-21.6,0-37.3,19.9-35.3,42.8l0.9,10.5h104L169.1,189.4
		L169.1,189.4z"/>
	<path class="st1" d="M55.5,190.2c4.6,4.5,13.4,2.8,13.4,2.8s41.3-44.1,24.7-46.4c-10.9-1.4-18.5,0-28,1.2
		c-5.7,0.7-15.7-0.3-15.7-0.3S47.1,181.9,55.5,190.2L55.5,190.2z"/>
	<path class="st13" d="M134.6,146.2l-2.5,42.7c0,0,12.1,1.8,19.9,10.9h35C187.6,160.2,134.6,146.2,134.6,146.2L134.6,146.2z"/>
	<path class="st1" d="M181.1,177.7c-14.9-29.3-46.4-31.5-46.4-31.5l-2.5,42.7c0,0,8.7,1.3,17.4,10.9h1.7
		C158.9,189,173.3,180.5,181.1,177.7L181.1,177.7z"/>
	<path class="st13" d="M132.9,131.5l0.1,11.1c0,2.2,1.9,3.7,4.2,3.9l-9.7,5.3c-8.1,3.7-17.4,3.7-25.4-0.2l-8.5-5
		c2.3,0,4.2-1.9,4.2-4.2l0.1-12.3L132.9,131.5L132.9,131.5z"/>
	
		<radialGradient id="SVGID_3_" cx="-5371.5894" cy="6585.6108" r="20.8105" gradientTransform="matrix(-0.998 0 0 0.7523 -5245.2832 -4818.9639)" gradientUnits="userSpaceOnUse">
		<stop  offset="0" style="stop-color:#591C17"/>
		<stop  offset="0.545" style="stop-color:#7B422B;stop-opacity:0.454"/>
		<stop  offset="1" style="stop-color:#9B643D;stop-opacity:0"/>
	</radialGradient>
	<path class="st14" d="M132.9,131.4v20.1l-35-0.1v-21.3L132.9,131.4z"/>
	<circle class="st13" cx="132" cy="127.3" r="3.6"/>
	<path class="st13" d="M117.1,144h-3.2c-8.8,0-16-7.3-16-16.1v-1.7c0-8.8,7.3-16,16.1-16h3.2c8.8,0,16,7.3,16,16.1v1.7
		C133.1,136.8,125.9,144,117.1,144L117.1,144z"/>
	
		<radialGradient id="SVGID_4_" cx="2613.0398" cy="-786.8" r="8.537" gradientTransform="matrix(0.9781 6.820000e-02 4.570000e-02 -0.6563 -2403.3838 -566.3216)" gradientUnits="userSpaceOnUse">
		<stop  offset="0" style="stop-color:#593417"/>
		<stop  offset="1" style="stop-color:#9B643D;stop-opacity:0"/>
	</radialGradient>
	<path class="st15" d="M116.4,117.1c-0.3,6.9-1.7,8.3-2.7,9.6c-0.9,1.2-0.4,2.7,1.1,3.4c0.3,0.1,0.5,0.3,0.7,0.4
		c0.5,0.4,0.8,1,0.8,1.7l-0.4,11.2l-15.5-1.9l2.5-24.2C102.9,117.4,116.5,112.7,116.4,117.1z"/>
	<circle class="st13" cx="99" cy="127.3" r="3.6"/>
	<ellipse class="st16" cx="109.2" cy="124.6" rx="1.1" ry="2"/>
	<ellipse class="st16" cx="121.8" cy="124.6" rx="1.1" ry="2"/>
	<path class="st17" d="M120.1,132.3h-0.2l-7.1,0.9h-0.1c-0.4,0.1-0.6,0.5-0.4,0.9c0.6,1.9,2.7,3.2,4.7,3c2.1-0.3,3.7-1.9,4-4
		c0.1-0.4-0.2-0.7-0.6-0.8C120.3,132.3,120.2,132.3,120.1,132.3z"/>
	<path class="st13" d="M27.4,100.1c-0.2-1.7-5,1.2-5,1.2s3.7-7.4,1.9-7.8c-1.4-0.4-3.1,4.7-3.1,4.7s2.9-6.7,1.2-6.7
		c-1.9,0-3.7,6.4-3.7,6.4s3.3-6.4,0.9-5.9c-1.5,0.3-2.9,6.7-2.9,6.7s2.6-4.6,1.2-4.5c-2.9,0.2-5.1,7.2-5.5,9.3c-0.5,2.9,0,5.6,0,5.6
		s1.9,0.6,5.7,0.2C20.5,109.2,27.5,101.6,27.4,100.1z"/>
	<path class="st18" d="M120.5,132.4c-1.2,0.8-2.6,1.3-4,1.5c-1.6,0.2-3-0.1-4.2-0.4c0.1-0.1,0.2-0.2,0.4-0.3h0.1l7.1-0.9h0.2
		C120.3,132.3,120.5,132.3,120.5,132.4z"/>
	<path class="st10" d="M129.8,27.2h-28.5L99.2,26l2.1-1.1h28.5c0.5,0,0.9,0.5,0.9,1.2C130.7,26.7,130.2,27.2,129.8,27.2L129.8,27.2z
		"/>
	<circle class="st19" cx="115.8" cy="23.4" r="9.1"/>
	
		<radialGradient id="SVGID_5_" cx="140.9815" cy="401.4106" r="15.2471" gradientTransform="matrix(0.998 0 0 -0.998 -24.4838 432.5171)" gradientUnits="userSpaceOnUse">
		<stop  offset="0.313" style="stop-color:#231F20"/>
		<stop  offset="0.803" style="stop-color:#493931;stop-opacity:0.286"/>
		<stop  offset="1" style="stop-color:#594539;stop-opacity:0"/>
	</radialGradient>
	<circle class="st20" cx="115.8" cy="23.4" r="9.1"/>
	<circle class="st19" cx="115.8" cy="43.2" r="18"/>
	<path class="st21" d="M110.3,62.7v1.2c0,1.4-1,2.7-2.4,3l-0.4,0.1l1.4,2.6h4.3v-6.9L110.3,62.7L110.3,62.7z M121.2,62v1.9
		c0,1.4,1,2.7,2.4,3L124,67l-0.8,3h-4.6v-8H121.2z"/>
	<path class="st21" d="M110.3,51.7h10.9v27.1h-10.9V51.7z"/>
	
		<radialGradient id="SVGID_6_" cx="-8042.209" cy="377.0102" r="10.3597" gradientTransform="matrix(-0.998 0 0 -0.998 -7910.4561 432.5161)" gradientUnits="userSpaceOnUse">
		<stop  offset="1.000000e-03" style="stop-color:#9B643D"/>
		<stop  offset="0.456" style="stop-color:#B98963;stop-opacity:0.545"/>
		<stop  offset="1" style="stop-color:#E0BB95;stop-opacity:0"/>
	</radialGradient>
	<path class="st22" d="M110.3,78.8h10.9V51.7h-10.9V78.8z"/>
	<circle class="st21" cx="115.8" cy="47.6" r="13.8"/>
	
		<linearGradient id="SVGID_7_" gradientUnits="userSpaceOnUse" x1="-8055.0688" y1="395.639" x2="-8040.4443" y2="388.6464" gradientTransform="matrix(-1 0 0 -1 -7923.2051 437.154)">
		<stop  offset="0" style="stop-color:#9B643D"/>
		<stop  offset="0.455" style="stop-color:#B98963;stop-opacity:0.545"/>
		<stop  offset="1" style="stop-color:#E0BB95;stop-opacity:0"/>
	</linearGradient>
	<path class="st23" d="M115.8,35.5v25.9c7.6,0,13.8-6.2,13.8-13.8c0-5.2-2.9-9.7-7-12.1H115.8z"/>
	<path class="st21" d="M99.3,70.5h32.9c-4.6-2.9-10-4.5-15.5-4.5h-1.9C109.3,66,104,67.6,99.3,70.5z"/>
	<circle class="st24" cx="110" cy="49.6" r="4.7"/>
	<circle class="st24" cx="121.3" cy="49.6" r="4.7"/>
	<path class="st24" d="M114.6,48.2h2.2"/>
	<path class="st21" d="M133.7,53.8c-4.5,0.1-8.2-1.7-8.2-1.7c-0.4-0.3-0.1-0.6,0.4-0.7c0.7-0.1,1.5-0.2,2.2-0.4l-2.5-3.8
		c-0.4-0.3-0.1-1.5,0.9-0.9s1.7,0.9,3.3,1.7c1.7,0.8,4.8,4.2,4.8,4.2L133.7,53.8L133.7,53.8z"/>
	<path class="st9" d="M124,67h15.2c1.5,0,2.1-1.9,0.9-2.7l-9.1-6.6l3.2-5.9l22.4,7c10.6,3.4,11.4,18,1.2,22.6L131.4,93L124,67z"/>
	<path class="st13" d="M113.2,54.8c0.3,0.4,0.6,0.5,0.9,0.7c0.3,0.1,0.6,0.2,0.9,0.3c0.4,0.1,0.6,0.1,1,0.1s0.7,0,1.2-0.1h0.1
		c0.1-0.1,0.4,0.1,0.4,0.2v0.2c-0.2,0.6-0.7,1-1.2,1.2c-0.6,0.2-1.2,0.2-1.7,0.1c-0.6-0.1-1.1-0.4-1.5-0.9c-0.4-0.4-0.6-1.1-0.5-1.7
		c0-0.2,0.2-0.3,0.4-0.3C113.1,54.8,113.1,54.8,113.2,54.8z"/>
	<ellipse class="st16" cx="110" cy="49.9" rx="1.1" ry="1.8"/>
	<ellipse class="st16" cx="121.2" cy="49.9" rx="1.1" ry="1.8"/>
	<path class="st19" d="M133.7,43.2c0,1-0.1,2-0.3,3c-5.1-0.3-9.6-3.1-12.3-7.1c1.7-2.5,2.7-5.5,2.7-8.8c0-1.2-0.1-2.2-0.4-3.3
		C129.5,29.9,133.7,36.1,133.7,43.2z"/>
	<path class="st19" d="M123.5,26.9c0.2,1.1,0.4,2.2,0.4,3.3c0,3.2-0.9,6.3-2.7,8.8c-1.7-2.5-2.7-5.5-2.7-8.8c0-1.7,0.3-3.2,0.7-4.7
		C120.8,25.9,122.2,26.4,123.5,26.9z"/>
	<path class="st19" d="M121.2,39.1c-3,4.5-8,7.1-13.3,7.1c-3.8,0-7.3-1.4-10.1-3.6c0.3-9.6,8.2-17.4,18-17.4c1.2,0,2.4,0.1,3.5,0.4
		c-0.4,1.5-0.7,3.1-0.7,4.7C118.5,33.5,119.5,36.6,121.2,39.1z"/>
	<circle class="st25" cx="18.5" cy="17.9" r="17.5"/>
	<path class="st9" d="M21.2,11.5c0.2,0.1,0.4,0.2,0.6,0.4s0.4,0.4,0.4,0.6c0.1,0.2,0.1,0.5,0.1,0.7v9.1c0,0.3-0.1,0.5-0.1,0.7
		c-0.1,0.2-0.2,0.4-0.4,0.6c-0.2,0.2-0.4,0.4-0.6,0.4c-0.2,0.1-0.5,0.1-0.7,0.1H10.4c-0.7,0-1.3-0.4-1.7-1.1
		c-0.3-0.6-0.5-1.4-0.6-2.4C8,20.3,8,19.6,8,18.7V17c0-0.9,0-1.7,0.1-2.2c0.1-1,0.4-1.8,0.6-2.4c0.4-0.7,0.9-1.1,1.7-1.1h10.1
		C20.8,11.3,21,11.4,21.2,11.5z M28.7,12.8c0.1,0.1,0.2,0.3,0.2,0.4v9.1c0,0.1-0.1,0.4-0.2,0.4c-0.1,0.1-0.3,0.2-0.4,0.2
		S28,23,27.9,22.8l-3.3-3.2c-0.3-0.2-0.4-0.5-0.6-0.9c-0.1-0.4-0.2-0.6-0.2-1s0.1-0.7,0.2-1s0.3-0.6,0.6-0.9l3.3-3.2
		c0.1-0.1,0.3-0.2,0.4-0.2C28.5,12.6,28.7,12.7,28.7,12.8z"/>
	<circle class="st0" cx="216.8" cy="128.5" r="12.7"/>
	<path class="st26" d="M212.5,121.5l4.3,7l6.2,0.1"/>
	<path class="st9" d="M311.8,178.4c-1.5-6-13-5.3-14.4-10.7c-1.5-5.5,4.3-10,1.7-15.1c-2.6-5.1-8.7-5-12.3-9.9
		c-3.6-4.8-4.8-15.6-4.8-15.6l-17.2-8l-1.1,4.9l-1.2-5.4l-17.3,8.5c0,0-1.3,10.8-5,15.7s-10.5,4.5-13.2,9.7s3.8,10.1,2.3,15.6
		s-12.1,5.4-14.5,11.2c-3.9,9.2,8.9,10.9,8.9,16.1c0,2.4-1.7,3.3-3.8,4.4h90c-3.4-1.6-7.1-1.9-7-5
		C302.8,189.6,314.2,188.5,311.8,178.4L311.8,178.4z"/>
	
		<radialGradient id="SVGID_8_" cx="246.0583" cy="-199.3237" r="23.9495" gradientTransform="matrix(0.998 0 0 -0.998 -4.6458 -8.5799)" gradientUnits="userSpaceOnUse">
		<stop  offset="7.000001e-03" style="stop-color:#33312D"/>
		<stop  offset="0.105" style="stop-color:#3D3B37"/>
		<stop  offset="0.478" style="stop-color:#5E5B58"/>
		<stop  offset="0.79" style="stop-color:#726F6C"/>
		<stop  offset="1" style="stop-color:#797673"/>
	</radialGradient>
	<path class="st27" d="M253.6,161l-8.4,9.9l1.1,17.4c1.4,3.7,2.1,7.6,2.2,11.5h30.4c0.1-3.9,0.8-7.8,2.2-11.5l3.4-9.9l-9.6-17.4
		H253.6L253.6,161z"/>
	<path class="st28" d="M289.4,171.5c-2.8-8-14.5-10.5-14.5-10.5s1.3,23.3,4.1,38.8h12.2C290.1,189.1,291.2,176.8,289.4,171.5
		L289.4,171.5z"/>
	<path class="st9" d="M283.1,133.1c0,0.9-0.1,1.7-0.1,2.5c-0.5,4.6-2.5,8.7-5.5,11.8c-3.5,3.7-8.3,5.9-13.6,5.9h-0.3
		c-9.9,0-18-7.8-19.1-17.9c-0.1-0.8-0.1-1.6-0.1-2.4c0-4.9,1.9-9.3,4.9-12.4c1.5-1.5,3.2-2.8,5.1-3.7c2.1-1,4.4-1.5,6.7-1.5h5.4
		c2.4,0,4.7,0.5,6.8,1.5C279,119.8,283.1,125.9,283.1,133.1L283.1,133.1z"/>
	<path class="st29" d="M259.7,145.3h8.1v16.4h-8.1V145.3z"/>
	
		<radialGradient id="SVGID_9_" cx="-3332.9639" cy="-155.4689" r="8.921" gradientTransform="matrix(-0.998 0 0 -0.998 -3064.804 -8.5799)" gradientUnits="userSpaceOnUse">
		<stop  offset="0" style="stop-color:#9B643D"/>
		<stop  offset="7.100000e-02" style="stop-color:#A36E48"/>
		<stop  offset="0.511" style="stop-color:#D2A987"/>
		<stop  offset="0.833" style="stop-color:#EFCEAE"/>
		<stop  offset="1" style="stop-color:#FADCBD"/>
	</radialGradient>
	<path class="st30" d="M270.5,151.6l-1.5,0.6c-0.8,0.3-1.3,1.1-1.3,1.9v1.7c0,1.8,1.3,3.5,3.1,3.9l0.3,0.1l-7.1,1.6l-7.1-1.7
		c1.6-0.5,2.7-2,2.7-3.7v-1.9c0-0.8-0.5-1.6-1.3-1.9l-1.5-0.6L270.5,151.6L270.5,151.6z"/>
	<path class="st29" d="M263.9,153.4h-0.3c-7.5,0-13.6-6.1-13.6-13.6v-0.1c0-6.5,5.3-11.8,11.8-11.8h3.9c6.5,0,11.8,5.3,11.8,11.8
		v0.1C277.4,147.3,271.4,153.4,263.9,153.4L263.9,153.4z"/>
	<ellipse class="st5" cx="269.1" cy="140.5" rx="1.2" ry="2.1"/>
	
		<radialGradient id="SVGID_10_" cx="4655.1885" cy="-8972.0439" r="12.4492" gradientTransform="matrix(0.5335 0 0 -0.4356 -2219.0718 -3765.0955)" gradientUnits="userSpaceOnUse">
		<stop  offset="0" style="stop-color:#9B643D"/>
		<stop  offset="0.321" style="stop-color:#B78763;stop-opacity:0.678"/>
		<stop  offset="1" style="stop-color:#FADCBD;stop-opacity:0"/>
	</radialGradient>
	<path class="st31" d="M253.7,137.2h10.1v11h-10.1L253.7,137.2L253.7,137.2z"/>
	<ellipse class="st5" cx="258.2" cy="140.5" rx="1.2" ry="2.1"/>
	<path class="st9" d="M282.2,136.7c-1.4,0.7-2.9,1.1-4.5,1.1c-5.1,0-9.3-4-9.7-9.1h-8.4c-0.3,5.1-4.6,9.1-9.7,9.1
		c-1.7,0-3.3-0.4-4.8-1.2c-0.1-0.7,6-13.6,6-13.6h25.6C276.8,123,282.3,136,282.2,136.7z"/>
	<path class="st21" d="M268,127.9v0.9h-4.2v-0.9c0.1-1.2,1.2-2,2.3-1.9C267.2,126.1,268,126.9,268,127.9z M263.8,127.9L263.8,127.9
		v0.9h-4.2v-0.9c0.1-1.2,1.1-2,2.3-1.9C262.9,126.1,263.7,126.9,263.8,127.9z"/>
	<path class="st29" d="M265,137.1c0,0-0.8,0.3-1.2,2.3c-0.5,2.5-2.3,2.6-1.9,4.5c0.3,1,1.7,1.6,1.9,2.3
		C263.8,146.2,268.2,145.4,265,137.1z"/>
	<path class="st6" d="M262.1,148c0.9,0.1,1.5,0.1,2.2-0.1c0.3-0.1,0.7-0.2,1-0.3c0.4-0.1,0.7-0.3,1.1-0.5l0,0c0.2-0.1,0.4,0,0.5,0.1
		c0,0.1,0,0.1,0,0.2c0,0.6-0.3,1.1-0.8,1.4c-0.4,0.4-0.9,0.6-1.5,0.8c-0.6,0.1-1.1,0.1-1.7-0.1c-0.5-0.2-1-0.6-1.2-1
		c-0.1-0.2,0-0.4,0.1-0.5C261.9,148,262,147.9,262.1,148L262.1,148z"/>
	
		<radialGradient id="SVGID_11_" cx="248.3142" cy="-210.3448" r="17.887" gradientTransform="matrix(0.998 0 0 -0.998 -4.6458 -8.5799)" gradientUnits="userSpaceOnUse">
		<stop  offset="7.000001e-03" style="stop-color:#33312D"/>
		<stop  offset="0.105" style="stop-color:#3D3B37"/>
		<stop  offset="0.478" style="stop-color:#5E5B58"/>
		<stop  offset="0.79" style="stop-color:#726F6C"/>
		<stop  offset="1" style="stop-color:#797673"/>
	</radialGradient>
	<path class="st32" d="M247.6,192.4c0.9-1.8,3.7-10,3.7-10l2.3-21.4c0,0-11.7,2.5-14.5,10.5c-2.2,6.3-2.3,19.2-7.4,27.9
		C238,200.3,247.6,192.4,247.6,192.4z"/>
	<path class="st29" d="M271.1,163c-4.5,3.1-10.5,3.1-15-0.1c-0.9-0.6-1.7-1.2-2.6-1.9c1.2-0.4,2.2-0.7,2.6-0.9
		c2.8-1.2,4.4-1.5,7.5-1.5c0.9,0,2.4,0.1,4,0.4c3.2,0.6,7.2,2,7.2,2L271.1,163L271.1,163z M253.4,179.7l1.8-9.1
		c0.2-1,0.9-1.8,1.8-2.1l2.9-1.2c0.5-0.3,1.2-0.3,1.7,0c0,0,3.2,1.8,3.3,2.1c0.6,1.7-1.9,0.5-1.9,0.5l1.1,1c0.5,0.5,0.7,1.2,0.5,1.8
		l-2.1,3.1c-0.2,0.1-0.4,0.1-0.6,0c0-0.1-0.1-0.1-0.1-0.2l-0.4-1.8l-1.8-0.4c0,0-1-0.8-1.1,6.2c0,2.8-3.2,4-3.2,4"/>
	<path class="st28" d="M231.4,199.8h13.7c5-7.2,10.1-16.2,10.1-16.2l-1.9-3.9C253.4,179.7,235.3,193.1,231.4,199.8z"/>
	<circle class="st0" cx="217.1" cy="128.6" r="12.7"/>
	<path class="st26" d="M212.8,121.6l4.3,7l6.2,0.1"/>
	<path class="st10" d="M327.8,194.8h-30.7c-2.1,0-3.7-1.6-3.7-3.7c0,0,0,0,0-0.1v-18.8c0-2.1,1.6-3.7,3.7-3.7c0,0,0,0,0.1,0h30.7
		c2.1,0,3.7,1.6,3.7,3.7c0,0,0,0,0,0.1v18.8C331.6,193.2,329.9,194.8,327.8,194.8C327.9,194.8,327.9,194.8,327.8,194.8z"/>
	<path class="st33" d="M317.6,180.9h0.6c0.6,0,1,0.2,1.4,0.6c0.4,0.4,0.6,0.9,0.6,1.4c0,0.6-0.2,1.1-0.6,1.4
		c-0.4,0.4-0.9,0.6-1.4,0.6h-0.6V180.9L317.6,180.9z M306.9,181h-0.6c-0.6,0-1,0.2-1.4,0.6c-0.4,0.4-0.6,0.9-0.6,1.4
		c0,0.6,0.2,1,0.6,1.4s0.9,0.6,1.4,0.6h0.6V181L306.9,181z"/>
	<path class="st16" d="M314.2,181.7c0-0.2,0.1-0.4,0.1-0.6c0.1-0.2,0.2-0.3,0.4-0.3s0.2,0.1,0.4,0.3c0.1,0.1,0.1,0.4,0.1,0.6
		s-0.1,0.5-0.1,0.6c-0.1,0.1-0.2,0.3-0.4,0.3s-0.2-0.1-0.4-0.3C314.2,182.1,314.2,181.9,314.2,181.7z"/>
	
		<radialGradient id="SVGID_12_" cx="1296.8599" cy="-1446.2343" r="3.1589" gradientTransform="matrix(-0.998 -1.500000e-03 0 -0.7381 1605.7777 -882.6176)" gradientUnits="userSpaceOnUse">
		<stop  offset="0" style="stop-color:#744D2C"/>
		<stop  offset="1" style="stop-color:#BE906B;stop-opacity:0"/>
	</radialGradient>
	<path class="st34" d="M307.9,180.7h4v4.9h-4V180.7z"/>
	<path class="st16" d="M309.2,181.7c0-0.2,0.1-0.4,0.1-0.6c0.1-0.2,0.2-0.3,0.4-0.3s0.2,0.1,0.4,0.3c0.1,0.1,0.1,0.4,0.1,0.6
		s-0.1,0.5-0.1,0.6c-0.1,0.1-0.2,0.3-0.4,0.3c-0.1,0-0.2-0.1-0.4-0.3C309.2,182.2,309.2,182,309.2,181.7z"/>
	<path class="st35" d="M311.5,185.4c0.1,0,0.3,0,0.5-0.1c0.1-0.1,0.4-0.1,0.5-0.1l0.4-0.2c0.1-0.1,0.3-0.1,0.4-0.3
		c0.1-0.1,0.1-0.1,0.2,0l0.1,0.1c0,0.3-0.1,0.5-0.3,0.7c-0.1,0.2-0.4,0.3-0.6,0.4c-0.2,0.1-0.5,0.1-0.7,0.1c-0.3,0-0.5-0.1-0.6-0.4
		C311.3,185.5,311.4,185.4,311.5,185.4C311.4,185.4,311.4,185.4,311.5,185.4L311.5,185.4z"/>
	<path class="st33" d="M312.9,182.9c0,0.6-0.5,2.1-0.9,2.2c0,0,0-0.1-0.1-0.4c-0.1-0.4-0.3-0.7-0.6-0.9c-0.3-0.1-0.6-0.4-0.6-1
		s0.4-0.9,0.7-1c0.3-0.1,0.5-0.5,0.5-0.8c0.1-0.4,0.1-0.6,0.1-0.6C312.3,180.7,312.9,182.5,312.9,182.9L312.9,182.9z"/>
	<path class="st36" d="M312.4,190.8c-5.4,0-9.7-4.3-9.7-9.7s4.3-9.7,9.7-9.7s9.7,4.3,9.7,9.7C322.1,186.4,317.7,190.8,312.4,190.8z"
		/>
	<path class="st33" d="M312.4,193c-1.2,0-2.2-1-2.2-2.2v-4.7h4.3v4.7C314.5,192,313.6,193,312.4,193L312.4,193z"/>
	<path class="st5" d="M303.3,194.8h18.3c-2.2-2.9-5.5-4.5-9.1-4.5C308.8,190.3,305.4,192,303.3,194.8z"/>
	<path class="st33" d="M312.4,188.2c-3.6,0-6.5-2.9-6.5-6.5s2.9-6.5,6.5-6.5s6.5,2.9,6.5,6.5S316,188.2,312.4,188.2L312.4,188.2z"/>
	<path class="st36" d="M319.4,180c-3.8,0-7-3.1-7-6.9V173h2.9c2.2,0,4,1.8,4,4l0,0L319.4,180L319.4,180z"/>
	<path class="st10" d="M129.8,27.2h-28.5L99.2,26l2.1-1.1h28.5c0.5,0,0.9,0.5,0.9,1.2C130.7,26.7,130.2,27.2,129.8,27.2L129.8,27.2z
		"/>
	<circle class="st19" cx="115.8" cy="23.4" r="9.1"/>
	
		<radialGradient id="SVGID_13_" cx="140.9815" cy="401.4106" r="15.2471" gradientTransform="matrix(0.998 0 0 -0.998 -24.4838 432.5171)" gradientUnits="userSpaceOnUse">
		<stop  offset="0.313" style="stop-color:#231F20"/>
		<stop  offset="0.803" style="stop-color:#493931;stop-opacity:0.286"/>
		<stop  offset="1" style="stop-color:#594539;stop-opacity:0"/>
	</radialGradient>
	<circle class="st37" cx="115.8" cy="23.4" r="9.1"/>
	<circle class="st19" cx="115.8" cy="43.2" r="18"/>
	<path class="st21" d="M110.3,62.7v1.2c0,1.4-1,2.7-2.4,3l-0.4,0.1l1.4,2.6h4.3v-6.9L110.3,62.7L110.3,62.7z M121.2,62v1.9
		c0,1.4,1,2.7,2.4,3L124,67l-0.8,3h-4.6v-8H121.2z"/>
	<path class="st21" d="M110.3,51.7h10.9v27.1h-10.9V51.7z"/>
	
		<radialGradient id="SVGID_14_" cx="-8042.209" cy="377.0102" r="10.3597" gradientTransform="matrix(-0.998 0 0 -0.998 -7910.4561 432.5161)" gradientUnits="userSpaceOnUse">
		<stop  offset="1.000000e-03" style="stop-color:#9B643D"/>
		<stop  offset="0.456" style="stop-color:#B98963;stop-opacity:0.545"/>
		<stop  offset="1" style="stop-color:#E0BB95;stop-opacity:0"/>
	</radialGradient>
	<path class="st38" d="M110.3,78.8h10.9V51.7h-10.9V78.8z"/>
	<circle class="st21" cx="115.8" cy="47.6" r="13.8"/>
	
		<linearGradient id="SVGID_15_" gradientUnits="userSpaceOnUse" x1="-8056.0117" y1="396.0898" x2="-8041.3872" y2="389.0971" gradientTransform="matrix(-1 0 0 -1 -7923.2051 437.154)">
		<stop  offset="0" style="stop-color:#9B643D"/>
		<stop  offset="0.455" style="stop-color:#B98963;stop-opacity:0.545"/>
		<stop  offset="1" style="stop-color:#E0BB95;stop-opacity:0"/>
	</linearGradient>
	<path class="st39" d="M115.8,35.5v25.9c7.6,0,13.8-6.2,13.8-13.8c0-5.2-2.9-9.7-7-12.1H115.8z"/>
	<path class="st10" d="M145.8,100v-4.8c0-9-4.1-17-10.4-22.4c-1-0.9-2-1.6-3.2-2.3H99.4c-0.7,0.4-1.4,0.9-2.2,1.5
		c-7,5.3-11.5,13.7-11.5,23.2v4.8H145.8L145.8,100z"/>
	<path class="st21" d="M99.3,70.5h32.9c-4.6-2.9-10-4.5-15.5-4.5h-1.9C109.3,66,104,67.6,99.3,70.5z"/>
	<path class="st9" d="M107.4,100V67C96,69.9,87.3,79.6,85.7,91.6v0.1c-0.1,0.3-0.6,3.7-1.6,8.3H107.4L107.4,100z"/>
	
		<radialGradient id="SVGID_16_" cx="152.9464" cy="3626.6716" r="15.0902" gradientTransform="matrix(0.998 0 0 0.998 -4.6458 -3536.969)" gradientUnits="userSpaceOnUse">
		<stop  offset="1.000000e-03" style="stop-color:#6E6FAC"/>
		<stop  offset="0.168" style="stop-color:#9A9BC5"/>
		<stop  offset="0.335" style="stop-color:#BEBFDA"/>
		<stop  offset="0.502" style="stop-color:#DBDBEA"/>
		<stop  offset="0.669" style="stop-color:#EFEFF6"/>
		<stop  offset="0.835" style="stop-color:#FBFBFD"/>
		<stop  offset="1" style="stop-color:#FFFFFF"/>
	</radialGradient>
	<path class="st40" d="M147.2,100c-1-4.7-1.5-8.1-1.6-8.3v-0.1c-1.5-12-10.2-21.7-21.6-24.6v33H147.2L147.2,100z"/>
	<circle class="st24" cx="110" cy="49.6" r="4.7"/>
	<circle class="st24" cx="121.3" cy="49.6" r="4.7"/>
	<path class="st24" d="M114.6,48.2h2.2"/>
	<path class="st21" d="M133.7,53.8c-4.5,0.1-8.2-1.7-8.2-1.7c-0.4-0.3-0.1-0.6,0.4-0.7c0.7-0.1,1.5-0.2,2.2-0.4l-2.5-3.8
		c-0.4-0.3-0.1-1.5,0.9-0.9s1.7,0.9,3.3,1.7c1.7,0.8,4.8,4.2,4.8,4.2L133.7,53.8L133.7,53.8z"/>
	<path class="st9" d="M124,67h15.2c1.5,0,2.1-1.9,0.9-2.7l-9.1-6.6l3.2-5.9l22.4,7c10.6,3.4,11.4,18,1.2,22.6L131.4,93L124,67z"/>
	<path class="st6" d="M113.4,54.8c0.3,0.4,0.6,0.5,0.9,0.7c0.3,0.1,0.6,0.2,0.9,0.3c0.4,0.1,0.6,0.1,1,0.1s0.7,0,1.2-0.1h0.1
		c0.1-0.1,0.4,0.1,0.4,0.2v0.2c-0.2,0.6-0.7,1-1.2,1.2c-0.6,0.2-1.1,0.2-1.7,0.1c-0.6-0.1-1.2-0.4-1.5-0.9c-0.4-0.4-0.6-1.1-0.5-1.7
		c0-0.2,0.2-0.3,0.4-0.3C113.3,54.8,113.3,54.8,113.4,54.8z"/>
	<ellipse class="st16" cx="110" cy="49.9" rx="1.1" ry="1.8"/>
	<ellipse class="st16" cx="121.2" cy="49.9" rx="1.1" ry="1.8"/>
	<path class="st19" d="M97.8,42.6c2.8,2.2,6.3,3.6,10.1,3.6c5.3,0,10.3-2.6,13.3-7.1c2.7,4,7.2,6.8,12.3,7.1c0.2-1,0.3-2,0.3-3
		c0-3.8-9-13.5-18.4-14.3C107.3,28.1,98.9,35.4,97.8,42.6L97.8,42.6z"/>
	<path class="st25" d="M139,199.8v-28.5c0-1.8-1.5-3.3-3.3-3.3l0,0h-29.3c-1.8,0-3.3,1.5-3.3,3.3l0,0v28.5H139L139,199.8L139,199.8z
		"/>
	<path class="st13" d="M107.7,180.7c-0.4-0.4-1.1-0.6-1.7-0.4c-1,0.4-1.4,1.6-0.9,2.4l3.2,4.1l-8.3-1.7c-1.1-0.2-2.2,0.6-2.2,1.7
		c0,0.7,0.5,1.4,1.1,1.7l0.9,0.4l0.6,6.3c0.1,1.3,1.1,2.4,2.4,2.7l8.9,1.6c0.4,0.1,0.7,0.2,1,0.4h17.8L107.7,180.7z"/>
</g>
<g>
	<path class="st41" d="M357.8,38c-5.8,0-11.7,0-17.5,0c-0.6,0-0.7-0.1-0.7-0.7c0-11.7,0-23.4,0-35.1c0-0.6,0.1-0.7,0.7-0.7
		c11.7,0,23.4,0,35.1,0c0.6,0,0.7,0.1,0.7,0.7c0,11.7,0,23.4,0,35.1c0,0.6-0.1,0.7-0.7,0.7C369.5,38,363.7,38,357.8,38z M359.8,9.5
		c-1-0.6-2-0.1-3-0.3c-0.7-0.1-1,0.2-1,0.9c0.1,1.5,0,3,0,4.6c-1-0.6-1.6-1.4-2.3-2c-0.7-0.6-1.3-1.9-2.1-1.8
		c-0.8,0.1-1.4,1.2-2.1,1.9c-0.1,0.1-0.1,0.1-0.2,0.2c-0.4,0.4-0.4,0.7,0,1.1c2.7,2.6,5.4,5.3,8,7.9c0.6,0.6,1,0.5,1.5,0
		c2.3-2.3,4.6-4.6,7-6.9c1.5-1.5,1.5-1.5,0-3.1c-0.2-0.2-0.5-0.5-0.7-0.7c-0.4-0.6-0.8-0.5-1.3,0c-1,1.1-2.1,2.1-3.1,3.1
		c-0.3,0.3-0.6,0.5-0.8-0.1c0-1.1,0-2.3,0-3.4c0.1-0.4,0.1-0.9,0-1.3C359.8,9.7,359.8,9.6,359.8,9.5z M348.8,20
		c-2.1,0-2.1,0-1.7,2.1c0,0.2,0.1,0.4,0.1,0.5c1.4,5.1,5.7,8.5,10.8,8.4c5.4-0.2,9.5-3.6,10.6-9C369,20,369,20,367.1,20
		c-2.1,0-2.1,0-2.6,1.9c-1,3.6-4.7,5.8-8.2,4.8c-2.6-0.7-4.3-2.4-5-5C350.7,20,350.7,20,348.8,20z"/>
	<path class="st42" d="M359.8,14.5c0.2,0.6,0.4,0.4,0.8,0.1c1-1,2.1-2,3.1-3.1c0.5-0.5,0.8-0.6,1.3,0c0.2,0.3,0.5,0.5,0.7,0.7
		c1.6,1.6,1.6,1.6,0,3.1c-2.3,2.3-4.7,4.6-7,6.9c-0.5,0.6-0.9,0.7-1.5,0c-2.6-2.7-5.3-5.3-8-7.9c-0.4-0.4-0.5-0.7,0-1.1
		c0.1-0.1,0.1-0.1,0.2-0.2c0.7-0.7,1.3-1.8,2.1-1.9c0.9-0.2,1.4,1.2,2.1,1.8c0.7,0.6,1.3,1.4,2.3,2c0-1.7,0-3.2,0-4.6
		c0-0.8,0.2-1,1-0.9c1,0.2,2.1-0.3,3,0.3c-0.2,0.1-0.1,0.2,0,0.2c0.1,0.4,0.1,0.9,0,1.3C359.4,12.2,359.4,13.4,359.8,14.5z"/>
	<path class="st43" d="M348.8,20c1.8,0,1.9,0,2.4,1.8c0.8,2.6,2.4,4.3,5,5c3.6,0.9,7.2-1.2,8.2-4.8c0.6-1.9,0.6-1.9,2.6-1.9
		c1.9,0,1.9,0,1.5,1.9c-1.1,5.4-5.2,8.9-10.6,9c-5.1,0.2-9.5-3.2-10.8-8.4c0-0.2-0.1-0.4-0.1-0.5C346.7,20,346.7,20,348.8,20z"/>
	<path class="st44" d="M359.8,14.5c-0.4-1.1-0.4-2.3,0-3.4C359.8,12.2,359.8,13.4,359.8,14.5z"/>
	<path class="st44" d="M359.8,9.8c-0.2-0.1-0.2-0.2,0-0.2C359.8,9.6,359.8,9.7,359.8,9.8z"/>
</g>
<g>
	<path class="st42" d="M356.5,192c-1.5,0-2.8-0.1-3.8-0.2c-1.1-0.1-2.1-0.4-3.1-0.7s-1.7-0.8-2.3-1.3c-0.6-0.6-1.1-1.3-1.4-2.1
		c-0.3-0.9-0.5-1.9-0.5-3.1c0-2.8,0.3-5.4,1-7.6h3.3c0,0.2,0,0.3-0.1,0.5c0,0.2,0,0.3-0.1,0.6c0,0.2,0,0.5-0.1,0.7
		c0,0.3,0,0.6-0.1,0.9c0,0.3,0,0.6-0.1,0.9s0,0.7-0.1,1c0,0.3,0,0.7,0,1c0,0.4,0,0.7,0,1c0,0.6,0,1,0.1,1.4c0,0.4,0.2,0.7,0.3,1.1
		s0.4,0.6,0.8,0.8c0.3,0.2,0.8,0.4,1.3,0.5s1.2,0.3,2,0.3s1.7,0.1,2.8,0.1c2.6,0,4.4-0.3,5.6-0.9c1.1-0.6,1.7-1.7,1.7-3.4
		c0-0.9,0-2-0.1-3.1c0-1.1-0.1-2-0.1-2.6l-0.1-1h3.3c0.6,1.9,0.9,4.5,0.8,7.6c0,1.4-0.3,2.5-0.8,3.5s-1.3,1.7-2.2,2.3
		s-2.1,1-3.5,1.2C359.9,191.9,358.3,192,356.5,192z"/>
	<path class="st42" d="M359.8,175.1c-1.6,0-3-0.1-4-0.4s-1.9-0.7-2.5-1.3c-0.6-0.6-1.1-1.3-1.3-2.2s-0.4-2-0.4-3.4
		c0-2.7,0.6-4.6,1.8-5.7s3.4-1.6,6.5-1.6c3,0,5,0.5,6.1,1.5c1.1,1,1.7,2.9,1.7,5.7c0,1.1-0.1,2-0.3,2.8c-0.2,0.8-0.5,1.5-0.9,2.1
		c-0.4,0.6-0.9,1-1.5,1.4c-0.6,0.3-1.4,0.6-2.2,0.7C362,175,361,175.1,359.8,175.1z M359.8,170.9c1,0,1.8,0,2.4-0.1
		c0.6-0.1,1-0.3,1.4-0.6s0.5-0.6,0.6-0.9c0.1-0.3,0.1-0.8,0.1-1.4c0-0.5,0-0.9-0.1-1.2c0-0.3-0.1-0.6-0.3-0.8s-0.4-0.5-0.7-0.6
		c-0.3-0.1-0.8-0.2-1.3-0.3c-0.5-0.1-1.2-0.1-2.1-0.1c-0.9,0-1.7,0-2.2,0.1c-0.6,0-1,0.1-1.4,0.3c-0.4,0.1-0.7,0.3-0.8,0.6
		c-0.2,0.3-0.3,0.5-0.4,0.9c-0.1,0.3-0.1,0.7-0.1,1.3c0,0.4,0,0.8,0.1,1.1c0,0.3,0.1,0.5,0.3,0.8c0.1,0.3,0.3,0.5,0.5,0.6
		c0.2,0.1,0.5,0.2,0.9,0.3c0.4,0.1,0.8,0.2,1.3,0.2C358.4,170.9,359,170.9,359.8,170.9z"/>
	<path class="st42" d="M367.5,158.2h-15.8v-3.3l1.7-0.8c-0.4-0.5-0.6-0.8-0.8-1.1c-0.1-0.2-0.3-0.5-0.6-1c-0.2-0.5-0.4-0.9-0.5-1.4
		s-0.1-1-0.1-1.6c0-3.2,1.8-4.7,5.5-4.7h10.6v4.2h-10.6c-0.8,0-1.3,0.2-1.6,0.5s-0.5,0.7-0.5,1.3s0.1,1,0.2,1.5
		c0.1,0.4,0.3,0.8,0.4,1.2c0.2,0.3,0.4,0.7,0.8,1.2h11.4V158.2z"/>
	<path class="st42" d="M354.8,142.7h-2.3l-0.9-2.6l-4.4-0.7v-3.5h4.4v-3.5h3.2v3.5h6.4c0.7,0,1.3-0.1,1.8-0.2s0.8-0.3,0.9-0.4
		s0.3-0.4,0.4-0.7c0.4-1.2,0.6-1.9,0.6-2h2.6v3.6c0,1.2-0.4,2.2-1.3,2.9c-0.9,0.7-2.3,1-4.3,1h-7V142.7z"/>
	<path class="st42" d="M359.5,130.6c-1.4,0-2.5-0.1-3.4-0.3c-0.9-0.2-1.7-0.4-2.3-0.7c-0.6-0.3-1.1-0.8-1.4-1.3
		c-0.3-0.6-0.5-1.2-0.7-1.9c-0.1-0.7-0.2-1.6-0.2-2.7c0-0.7,0-1.3,0-1.8c0-0.5,0.1-1,0.2-1.5c0.1-0.5,0.2-0.9,0.4-1.2
		c0.2-0.3,0.4-0.6,0.7-0.9c0.3-0.3,0.6-0.5,1-0.7c0.4-0.2,0.9-0.3,1.5-0.4c0.6-0.1,1.2-0.1,2-0.1c1.4,0,2.4,0.4,3,1.1
		c0.6,0.7,1,1.8,1,3.3v5c0.9,0,1.6-0.1,2-0.4c0.4-0.3,0.7-0.6,0.8-1c0.1-0.4,0.1-1,0.1-1.9c0-2.4-0.1-4.4-0.3-5.8h2.8
		c0.6,1.5,0.8,4.2,0.8,8.1c0,1-0.1,1.9-0.4,2.5c-0.3,0.7-0.8,1.2-1.5,1.6c-0.7,0.4-1.5,0.7-2.5,0.8S361,130.6,359.5,130.6z
		 M358.3,126.5v-4c0-0.9-0.4-1.3-1.2-1.3c-1,0-1.6,0.1-1.9,0.4c-0.3,0.3-0.4,0.9-0.4,1.9c0,0.6,0,1.1,0.1,1.4c0,0.3,0.2,0.6,0.4,0.9
		c0.2,0.3,0.6,0.5,1.1,0.6C356.8,126.4,357.4,126.5,358.3,126.5z"/>
	<path class="st42" d="M367.5,114.7h-15.8v-3.3l1.7-0.8c-0.4-0.5-0.6-0.8-0.8-1.1c-0.1-0.2-0.3-0.5-0.6-1c-0.2-0.5-0.4-0.9-0.5-1.4
		s-0.1-1-0.1-1.6c0-3.2,1.8-4.7,5.5-4.7h10.6v4.2h-10.6c-0.8,0-1.3,0.2-1.6,0.5s-0.5,0.7-0.5,1.3s0.1,1,0.2,1.5
		c0.1,0.4,0.3,0.8,0.4,1.2c0.2,0.3,0.4,0.7,0.8,1.2h11.4V114.7z"/>
	<path class="st42" d="M354.8,99.2h-2.3l-0.9-2.6l-4.4-0.7v-3.5h4.4V89h3.2v3.5h6.4c0.7,0,1.3-0.1,1.8-0.2c0.4-0.1,0.8-0.3,0.9-0.4
		c0.2-0.2,0.3-0.4,0.4-0.7c0.4-1.2,0.6-1.9,0.6-2h2.6v3.6c0,1.2-0.4,2.2-1.3,2.9c-0.9,0.7-2.3,1-4.3,1h-7V99.2z"/>
	<path class="st42" d="M366.8,86.4h-2.7c-0.5,0-0.7-0.2-0.7-0.7v-2.6c0-0.5,0.2-0.7,0.7-0.7h2.7c0.5,0,0.7,0.2,0.7,0.7v2.6
		c0,0.2-0.1,0.4-0.2,0.5C367.2,86.4,367,86.4,366.8,86.4z"/>
	<path class="st42" d="M367.5,79.1h-23.4V75h8.4c-0.2-0.3-0.3-0.7-0.5-1.2c-0.1-0.4-0.2-0.9-0.3-1.3c-0.1-0.4-0.1-0.8-0.2-1.2
		c0-0.4-0.1-0.8-0.1-1.1c0-0.9,0.1-1.6,0.4-2.2c0.3-0.6,0.6-1.1,1.1-1.5c0.4-0.4,1-0.7,1.7-0.9c0.7-0.2,1.5-0.4,2.2-0.4
		c0.8-0.1,1.7-0.1,2.8-0.1c2.6,0,4.5,0.4,5.9,1.2c1.4,0.8,2.1,2.1,2.1,4c0,0.9-0.2,1.7-0.5,2.6c-0.4,0.9-0.8,1.6-1.3,2.2l1.6,0.7
		V79.1z M363.1,75c0.6-1,1-2.2,1-3.7c0-0.5-0.1-0.8-0.4-1.1c-0.3-0.3-0.7-0.5-1.4-0.7c-0.7-0.2-1.6-0.2-2.8-0.2
		c-1.3,0-2.3,0.1-3,0.3c-0.7,0.2-1.2,0.4-1.4,0.7s-0.3,0.7-0.3,1.1c0,0.7,0,1.4,0.1,2c0.1,0.6,0.2,1.2,0.5,1.7H363.1z"/>
	<path class="st42" d="M363.5,63H362c-0.6,0-1.2-0.1-1.7-0.3c-0.5-0.2-1-0.4-1.4-0.8c-0.4-0.4-0.7-0.8-1-1.4
		c-0.2-0.6-0.3-1.3-0.3-2.2c0-0.8,0-1.5,0-2.3s0-1.5,0-2.3c-0.7,0-1,0-1,0c-0.4,0-0.8,0-1,0.1c-0.3,0.1-0.5,0.2-0.6,0.4
		c-0.1,0.2-0.2,0.4-0.3,0.7c0,0.2-0.1,0.5-0.1,0.9c0,1.3,0.1,3.5,0.3,6.6h-2.6c-0.7-1.8-1.1-4.2-1.1-7.2c0-1.8,0.4-3.2,1.1-4.2
		c0.8-1,2.1-1.5,4-1.5h11v3.3l-1.7,0.9c0.1,0.1,0.4,0.3,0.6,0.8c0.3,0.4,0.6,1,0.9,1.8c0.3,0.8,0.4,1.5,0.4,2.3
		c0,1.4-0.5,2.5-1.3,3.3C365.6,62.6,364.6,63,363.5,63z M362.9,58.8c0.6,0,1-0.1,1.2-0.4c0.2-0.3,0.3-0.6,0.3-1.1
		c0-0.2,0-0.5-0.1-0.7c0-0.3-0.1-0.5-0.2-0.7c-0.1-0.2-0.1-0.5-0.2-0.7c-0.1-0.2-0.2-0.4-0.3-0.6c-0.1-0.2-0.2-0.3-0.2-0.5
		c-0.1-0.1-0.2-0.3-0.3-0.4h-2.9l0.3,3.8c0,0.3,0.1,0.5,0.2,0.7c0.1,0.2,0.2,0.3,0.4,0.4c0.2,0.1,0.3,0.1,0.5,0.2s0.3,0,0.5,0H362.9
		z"/>
</g>
</svg>
